# xmcd
#
# Track frame offsets:
#	150
#	17020
#	36765
#	56325
#	78302
#	95425
#	111937
#	132060
#	152152
#	170705
#
# Disc length: 2501 seconds
#
# Revision: 0
# Processed by: cddbd v1.4PL0 Copyright (c) Steve Scherf et al.
# Submitted via: dBpowerAMP V4.0
#
DISCID=7609c30a
DTITLE=Keyakinan - Reza
DYEAR=2002
DGENRE=Indonesia
TTITLE0=Putus
TTITLE1=Apapun Kau Mau
TTITLE2=Bisa Jadi
TTITLE3=Cinta Kita
TTITLE4=Harus Terjadi
TTITLE5=Kau Jadi Milikku
TTITLE6=Persembahan
TTITLE7=Kepastian
TTITLE8=Berharap Tak Berpisah
TTITLE9=Zahwa
EXTD=
EXTT0=
EXTT1=
EXTT2=
EXTT3=
EXTT4=
EXTT5=
EXTT6=
EXTT7=
EXTT8=
EXTT9=
PLAYORDER=
